<?xml version="1.0"?>
<svg xmlns="http://www.w3.org/2000/svg" id="Capa_1" enable-background="new 0 0 512 512" height="512px" viewBox="0 0 512 512" width="512px">
    <g>
        <g>
            <path d="m190.16 254.403c0 4.142 3.358 7.5 7.5 7.5s7.5-3.358 7.5-7.5v-7.615l1.603.43c4.018 1.077 8.118-1.32 9.186-5.303 1.072-4.001-1.302-8.113-5.303-9.186l-22.482-6.024c-4.001-1.072-8.113 1.302-9.186 5.303-1.072 4.001 1.303 8.114 5.304 9.186l6.126 1.642c-.156.603-.248 1.232-.248 1.883z" data-original="#000000" class="active-path" data-old_color="#000000" fill="#FFFFFF"/>
            <path d="m246.273 266.767c5.143-5.901 14.296-5.919 19.454 0 2.722 3.123 7.459 3.448 10.582.727 3.123-2.722 3.448-7.459.727-10.582-5.305-6.088-12.972-9.58-21.035-9.58s-15.729 3.492-21.035 9.58c-2.721 3.123-2.396 7.86.727 10.582 3.127 2.726 7.864 2.389 10.58-.727z" data-original="#000000" class="active-path" data-old_color="#000000" fill="#FFFFFF"/>
            <path d="m333.021 232.008c-1.072-4.001-5.184-6.375-9.186-5.303l-22.481 6.024c-4.001 1.072-6.375 5.185-5.303 9.186 1.073 4.004 5.188 6.375 9.186 5.303l1.603-.43v7.615c0 4.142 3.358 7.5 7.5 7.5s7.5-3.358 7.5-7.5c-.08-9.572.185-9.896-.248-11.568l6.126-1.642c4.001-1.071 6.375-5.184 5.303-9.185z" data-original="#000000" class="active-path" data-old_color="#000000" fill="#FFFFFF"/>
        </g>
    </g>
</svg>
